<svg width="1027" height="25" viewBox="0 0 1027 25" fill="none" xmlns="http://www.w3.org/2000/svg">
<g clip-path="url(#clip0_16_2600)">
<path opacity="0.8" d="M7.99883 3.16565C4.91163 3.16565 2.40039 5.67922 2.40039 8.76722V16.7673C2.40039 19.8545 4.91395 22.3657 8.00195 22.3657H16.002C19.0892 22.3657 21.6004 19.8521 21.6004 16.7641V8.76409C21.6004 5.67689 19.0868 3.16565 15.9988 3.16565H7.99883ZM17.6004 6.36565C18.042 6.36565 18.4004 6.72405 18.4004 7.16565C18.4004 7.60725 18.042 7.96565 17.6004 7.96565C17.1588 7.96565 16.8004 7.60725 16.8004 7.16565C16.8004 6.72405 17.1588 6.36565 17.6004 6.36565ZM12.0004 7.96565C14.6476 7.96565 16.8004 10.1184 16.8004 12.7657C16.8004 15.4129 14.6476 17.5657 12.0004 17.5657C9.35319 17.5657 7.20039 15.4129 7.20039 12.7657C7.20039 10.1184 9.35319 7.96565 12.0004 7.96565ZM12.0004 9.56565C11.1517 9.56565 10.3378 9.9028 9.73765 10.5029C9.13753 11.1031 8.80039 11.917 8.80039 12.7657C8.80039 13.6144 9.13753 14.4283 9.73765 15.0284C10.3378 15.6286 11.1517 15.9657 12.0004 15.9657C12.8491 15.9657 13.663 15.6286 14.2631 15.0284C14.8632 14.4283 15.2004 13.6144 15.2004 12.7657C15.2004 11.917 14.8632 11.1031 14.2631 10.5029C13.663 9.9028 12.8491 9.56565 12.0004 9.56565Z" fill="#B4B3B3"/>
</g>
<g clip-path="url(#clip1_16_2600)">
<path opacity="0.8" d="M149.328 6.54721C148.592 6.87388 147.801 7.09388 146.971 7.19305C147.819 6.68555 148.47 5.88138 148.776 4.92305C147.983 5.39305 147.105 5.73471 146.17 5.91888C145.422 5.12138 144.355 4.62305 143.175 4.62305C140.526 4.62305 138.579 7.09471 139.177 9.66055C135.768 9.48971 132.745 7.85638 130.721 5.37388C129.646 7.21805 130.163 9.63055 131.99 10.8522C131.318 10.8305 130.685 10.6464 130.132 10.3389C130.087 12.2397 131.45 14.018 133.423 14.4139C132.846 14.5705 132.213 14.6072 131.57 14.4839C132.091 16.1139 133.606 17.2997 135.403 17.333C133.678 18.6855 131.505 19.2897 129.328 19.033C131.144 20.1972 133.301 20.8764 135.618 20.8764C143.236 20.8764 147.541 14.4422 147.281 8.67138C148.082 8.09221 148.778 7.36971 149.328 6.54721Z" fill="#B4B3B3"/>
</g>
<defs>
<clipPath id="clip0_16_2600">
<rect width="24" height="24" fill="white" transform="translate(0 0.765625)"/>
</clipPath>
<clipPath id="clip1_16_2600">
<rect width="20" height="20" fill="white" transform="translate(129.328 2.75)"/>
</clipPath>
</defs>
</svg>
