<svg width="43" height="43" viewBox="0 0 43 43" fill="none" xmlns="http://www.w3.org/2000/svg">
<rect x="0.325195" y="0.900146" width="42" height="42" rx="21" fill="white" fill-opacity="0.5"/>
<g clip-path="url(#clip0_15_1561)">
<path d="M24.8652 21.1897L19.2052 15.5397C19.1122 15.446 19.0016 15.3716 18.8798 15.3208C18.7579 15.27 18.6272 15.2439 18.4952 15.2439C18.3632 15.2439 18.2325 15.27 18.1106 15.3208C17.9887 15.3716 17.8781 15.446 17.7852 15.5397C17.5989 15.7271 17.4944 15.9805 17.4944 16.2447C17.4944 16.5089 17.5989 16.7623 17.7852 16.9497L22.7352 21.9497L17.7852 26.8996C17.5989 27.087 17.4944 27.3405 17.4944 27.6046C17.4944 27.8688 17.5989 28.1223 17.7852 28.3096C17.8778 28.4041 17.9882 28.4793 18.1101 28.5308C18.232 28.5823 18.3629 28.6091 18.4952 28.6096C18.6275 28.6091 18.7584 28.5823 18.8802 28.5308C19.0021 28.4793 19.1126 28.4041 19.2052 28.3096L24.8652 22.6597C24.9667 22.5661 25.0477 22.4524 25.1031 22.3259C25.1585 22.1994 25.1871 22.0628 25.1871 21.9247C25.1871 21.7866 25.1585 21.65 25.1031 21.5235C25.0477 21.397 24.9667 21.2833 24.8652 21.1897Z" fill="black"/>
</g>
<defs>
<clipPath id="clip0_15_1561">
<rect width="14" height="14" fill="white" transform="translate(14.3252 14.9001)"/>
</clipPath>
</defs>
</svg>
