<svg width="43" height="43" viewBox="0 0 43 43" fill="none" xmlns="http://www.w3.org/2000/svg">
<rect x="0.325195" y="0.862549" width="42" height="42" rx="21" fill="white" fill-opacity="0.5"/>
<g clip-path="url(#clip0_15_2054)">
<path d="M24.8652 21.1521L19.2052 15.5021C19.1122 15.4084 19.0016 15.334 18.8798 15.2832C18.7579 15.2324 18.6272 15.2063 18.4952 15.2063C18.3632 15.2063 18.2325 15.2324 18.1106 15.2832C17.9887 15.334 17.8781 15.4084 17.7852 15.5021C17.5989 15.6895 17.4944 15.9429 17.4944 16.2071C17.4944 16.4713 17.5989 16.7247 17.7852 16.9121L22.7352 21.9121L17.7852 26.862C17.5989 27.0494 17.4944 27.3029 17.4944 27.567C17.4944 27.8312 17.5989 28.0847 17.7852 28.272C17.8778 28.3665 17.9882 28.4417 18.1101 28.4932C18.232 28.5447 18.3629 28.5715 18.4952 28.572C18.6275 28.5715 18.7584 28.5447 18.8802 28.4932C19.0021 28.4417 19.1126 28.3665 19.2052 28.272L24.8652 22.6221C24.9667 22.5285 25.0477 22.4148 25.1031 22.2883C25.1585 22.1618 25.1871 22.0252 25.1871 21.8871C25.1871 21.749 25.1585 21.6124 25.1031 21.4859C25.0477 21.3594 24.9667 21.2457 24.8652 21.1521Z" fill="black"/>
</g>
<defs>
<clipPath id="clip0_15_2054">
<rect width="14" height="14" fill="white" transform="translate(14.3252 14.8625)"/>
</clipPath>
</defs>
</svg>
