<svg width="1532" height="602" viewBox="0 0 1532 602" fill="none" xmlns="http://www.w3.org/2000/svg">
<path opacity="0.2" d="M766.144 269.842L464.304 -15.4746C445.39 -33.3532 414.723 -33.3532 395.809 -15.4746L-30.2556 387.267" stroke="#C0C0C0" stroke-width="2.9454" stroke-linecap="round"/>
<path opacity="0.2" d="M766.322 270.113L1068.16 555.43C1087.07 573.309 1117.74 573.309 1136.65 555.43L1562.72 152.689" stroke="#C0C0C0" stroke-width="2.9454" stroke-linecap="round"/>
<path opacity="0.2" d="M902.116 281.217L600.276 -4.09961C581.361 -21.9782 550.695 -21.9782 531.781 -4.09961L105.717 398.642" stroke="#C0C0C0" stroke-width="2.9454" stroke-linecap="round"/>
<path opacity="0.2" d="M773.542 325.85L1075.38 611.166C1094.3 629.046 1124.96 629.046 1143.88 611.166L1569.94 208.425" stroke="#C0C0C0" stroke-width="2.9454" stroke-linecap="round"/>
<path opacity="0.2" d="M773.364 325.575L471.524 40.2583C452.61 22.3787 421.944 22.3787 403.029 40.2583L-23.0354 443" stroke="#C0C0C0" stroke-width="2.9454" stroke-linecap="round"/>
<path opacity="0.2" d="M902.294 281.488L1204.13 566.805C1223.05 584.684 1253.71 584.684 1272.63 566.805L1698.69 164.064" stroke="#C0C0C0" stroke-width="2.9454" stroke-linecap="round"/>
</svg>
