<svg width="24" height="25" viewBox="0 0 24 25" fill="none" xmlns="http://www.w3.org/2000/svg">
<g clip-path="url(#clip0_16_2610)">
<path d="M12 2.95312L6.5 11.9531H17.5L12 2.95312ZM12 6.79313L13.93 9.95312H10.06L12 6.79313ZM17.5 13.9531C15.01 13.9531 13 15.9631 13 18.4531C13 20.9431 15.01 22.9531 17.5 22.9531C19.99 22.9531 22 20.9431 22 18.4531C22 15.9631 19.99 13.9531 17.5 13.9531ZM17.5 20.9531C16.12 20.9531 15 19.8331 15 18.4531C15 17.0731 16.12 15.9531 17.5 15.9531C18.88 15.9531 20 17.0731 20 18.4531C20 19.8331 18.88 20.9531 17.5 20.9531ZM3 22.4531H11V14.4531H3V22.4531ZM5 16.4531H9V20.4531H5V16.4531Z" fill="#292C36"/>
</g>
<defs>
<clipPath id="clip0_16_2610">
<rect width="24" height="24" fill="white" transform="translate(0 0.953125)"/>
</clipPath>
</defs>
</svg>
