<svg width="32" height="31" viewBox="0 0 32 31" fill="none" xmlns="http://www.w3.org/2000/svg">
<g clip-path="url(#clip0_15_2463)">
<path d="M8.58682 13.0324C8.98495 14.3525 9.4669 15.5907 9.99075 16.7851C10.8918 18.9243 11.4995 20.0558 12.3395 21.4598C13.3663 23.1361 14.4997 25.0448 16.3647 26.2811C17.7267 27.1822 19.384 27.6432 20.9765 27.6432C23.2205 27.6432 25.1483 26.6583 26.3865 25.5039C27.6019 24.3724 29.1753 22.1913 29.1753 17.9356C29.1753 16.4688 29.8249 15.2097 30.3069 14.2039C30.3069 14.1829 30.3278 14.141 30.3697 14.0572C30.5583 13.6381 30.7888 13.0933 30.7888 12.5485C30.7888 12.1504 30.684 11.6894 30.4116 11.2912C29.9925 10.5788 29.2382 10.3274 28.5448 10.3274C26.9313 10.3274 25.8188 11.4589 25.2531 12.6133L25.0645 12.9904C24.834 12.6552 24.6035 12.299 24.4149 11.9846C23.8282 10.9579 23.4929 10.2664 23.1996 9.38441C22.9691 8.69292 22.7805 7.89666 22.6548 7.24517C22.2985 5.18975 21.7118 4.51922 20.746 4.26777C20.0336 4.07918 19.1954 4.22586 18.5858 4.62399C18.1686 3.68105 17.4562 3.26196 16.5113 3.26196C15.1703 3.26196 13.953 4.14204 13.953 5.6317C13.953 5.82029 13.974 6.00887 13.9949 6.23937C13.8273 6.19746 13.6387 6.17651 13.4501 6.17651C12.0043 6.17651 10.9337 7.18231 10.9337 8.54624C10.9337 8.86055 10.9756 9.21678 11.0804 9.63586C10.9546 9.61491 10.8289 9.61491 10.7032 9.61491C9.99075 9.65682 9.34117 9.92922 8.87827 10.495C8.41919 11.0398 8.2306 11.878 8.58682 13.0324Z" fill="black"/>
<path d="M9.78123 12.6553C9.59264 12.0476 9.61359 11.5866 9.84409 11.2932C10.0746 11.0208 10.3889 10.8951 10.7661 10.8742C11.4157 10.8532 11.6671 11.3142 12.0443 12.5086C12.2748 13.2629 12.7358 14.3545 13.0082 14.9621C13.3644 15.6955 13.8673 16.6804 14.0978 17.0176C14.2864 17.3109 14.454 17.3947 14.6426 17.3947C14.9779 17.3947 15.2293 17.2062 15.2293 16.8709C15.2293 16.6823 15.0407 16.368 14.936 16.1794C14.7474 15.8232 14.3493 15.1107 14.0768 14.5031C13.7835 13.8325 13.4482 12.9943 13.1758 12.2381C13.0082 11.7981 12.8196 11.1694 12.631 10.5408C12.3376 9.5769 12.191 8.99018 12.191 8.54824C12.191 7.87771 12.6939 7.43767 13.4482 7.43767C13.993 7.43767 14.3493 7.71007 14.5797 8.69492C14.7683 9.59595 15.1036 11.0647 15.5856 12.2171C15.8999 12.9715 16.3609 13.9792 16.6333 14.4821C16.8009 14.7755 16.9895 15.0269 16.9895 15.1317C16.9895 15.2784 16.7171 15.5089 16.4866 15.8232C16.3399 16.0118 16.277 16.1375 16.277 16.2842C16.277 16.4099 16.3609 16.5356 16.4866 16.7032C16.6123 16.8709 16.738 17.0385 16.8847 17.0385C16.9895 17.0385 17.0523 16.9966 17.1152 16.9128C17.7648 16.0956 18.4772 15.5298 19.2964 15.0669C20.2603 14.5221 21.247 14.2497 22.0223 14.0821C22.3995 13.9982 22.5043 13.9144 22.5043 13.7049C22.5043 13.4534 22.3157 13.3068 22.0642 13.2858C21.8756 13.2648 21.708 13.2858 21.4146 13.3068C21.2051 13.3277 21.1003 13.2229 20.9746 12.9505C20.5974 12.1543 19.864 10.8113 19.424 9.09305C19.2354 8.35965 19.0678 7.58435 18.963 6.57664C18.9001 6.11564 18.9839 5.94801 19.2144 5.73847C19.5078 5.48702 20.0317 5.38225 20.4298 5.48702C20.9117 5.61274 21.1632 5.98992 21.4146 7.45862C21.5404 8.15011 21.7499 9.03019 22.0014 9.78645C22.3157 10.7503 22.7138 11.5485 23.3215 12.6172C23.6567 13.2039 24.0758 13.8116 24.5159 14.4002C24.4321 14.6516 24.2854 14.8193 23.8034 15.2174C23.3215 15.6155 22.8395 16.0346 22.3995 16.8099C22.0852 17.3757 21.9385 18.0043 21.9385 18.4234C21.9385 18.8215 22.0223 18.9053 22.2738 18.9053C22.7138 18.9053 23.07 18.8215 23.091 18.6329C23.1958 17.8786 23.3215 17.3966 23.7406 16.829C23.992 16.5147 24.4321 16.1165 24.7883 15.8022C25.4588 15.2574 25.6893 14.9431 25.9198 14.1678C26.0246 13.8116 26.1503 13.4763 26.3179 13.162C26.7161 12.4286 27.4285 11.5904 28.541 11.5904C28.8972 11.5904 29.1906 11.6952 29.3792 11.9885C29.4839 12.1562 29.5258 12.3867 29.5258 12.5543C29.5258 12.9315 29.2534 13.4553 29.1277 13.7068C28.6667 14.6916 27.9124 16.2023 27.9124 17.9415C27.9124 21.7361 26.5713 23.6238 25.5217 24.5877C24.4949 25.5516 22.8795 26.3916 20.9727 26.3916C19.6107 26.3916 18.2048 25.9935 17.0523 25.2392C15.4389 24.1705 14.4312 22.4922 13.4044 20.816C12.5872 19.454 12.0214 18.3834 11.1394 16.3089C10.6423 15.1069 10.1794 13.9335 9.78123 12.6553Z" fill="#B4B3B3"/>
<path d="M15.1703 5.63151C15.1703 4.83525 15.9037 4.52094 16.5114 4.52094C17.1609 4.52094 17.3914 4.83525 17.5591 5.50579C17.7058 6.0506 17.7686 6.5535 17.8315 7.14022C17.9153 7.72694 18.2087 9.06991 18.2925 9.40518C18.6068 10.5577 19.2354 11.9216 19.9898 13.556C19.5497 13.7027 18.963 13.9542 18.5649 14.1637C18.062 14.4361 17.9572 14.4361 17.7477 14.038C17.3076 13.2208 16.9933 12.6131 16.7209 11.8987C16.4904 11.312 16.2599 10.6415 16.0713 9.86427C15.757 8.54415 15.7151 8.16698 15.4636 7.5574C15.317 6.93068 15.1703 6.15537 15.1703 5.63151Z" fill="#B4B3B3"/>
<path d="M7.66541 19.6673C7.22151 19.9416 4.86862 21.1743 4.33708 21.3705C3.95795 21.5115 3.54643 21.4772 3.30448 20.7608C3.00727 19.8749 3.4245 19.6654 4.01892 19.4348C4.54474 19.231 6.72616 18.4423 7.23294 18.3051C7.58921 18.2098 7.83688 18.3299 8.00834 18.7585C8.19696 19.2291 8.0674 19.4177 7.66541 19.6673Z" fill="#B4B3B3"/>
<path d="M5.72619 14.6748C5.09368 14.692 2.46644 14.5796 1.86631 14.5205C1.3443 14.4691 1.13282 14.2385 1.18998 13.4822C1.25094 12.6706 1.5672 12.6211 2.07969 12.6706C2.67411 12.7277 5.42708 13.1755 5.86527 13.3107C6.3187 13.4517 6.38157 13.6575 6.32632 14.0537C6.25583 14.5681 6.0234 14.6653 5.72619 14.6748Z" fill="#B4B3B3"/>
<path d="M6.05192 9.35633C5.32795 9.12771 3.17892 7.82647 2.61879 7.49116C2.11201 7.18634 2.04724 6.91199 2.39969 6.24328C2.71214 5.65267 3.05889 5.5498 3.57329 5.81652C4.16961 6.12706 6.27482 7.76551 6.67681 8.08939C7.06547 8.40184 7.01212 8.56378 6.80827 8.96577C6.60441 9.36776 6.4139 9.47064 6.05192 9.35633Z" fill="#B4B3B3"/>
</g>
<defs>
<clipPath id="clip0_15_2463">
<rect width="30.0979" height="30.0979" fill="white" transform="translate(0.936646 0.40448)"/>
</clipPath>
</defs>
</svg>
