<svg width="25" height="25" viewBox="0 0 25 25" fill="none" xmlns="http://www.w3.org/2000/svg">
<g clip-path="url(#clip0_15_2471)">
<path d="M12.1393 1.91724C6.32946 1.91724 1.60315 6.64374 1.60315 12.4534C1.60315 18.2632 6.32946 22.9899 12.1393 22.9899C17.9488 22.9899 22.6754 18.2632 22.6754 12.4534C22.6754 6.64374 17.9488 1.91724 12.1393 1.91724ZM15.1171 8.5685C15.1171 8.61839 15.0973 8.66624 15.062 8.70151C15.0267 8.73679 14.9789 8.75661 14.929 8.75661L13.7313 8.75736C12.941 8.75736 12.7966 9.06511 12.7966 9.67121V10.9286H14.8507C14.9047 10.9286 14.9563 10.9519 14.9918 10.9925C15.0274 11.0331 15.0439 11.0871 15.0374 11.1407L14.7448 13.4043C14.739 13.4496 14.7168 13.4913 14.6825 13.5215C14.6481 13.5517 14.604 13.5683 14.5582 13.5683H12.7966V19.1889C12.7966 19.2388 12.7767 19.2867 12.7415 19.3219C12.7062 19.3572 12.6583 19.377 12.6085 19.377H10.2713C10.2215 19.377 10.1736 19.3572 10.1383 19.3219C10.1031 19.2867 10.0832 19.2388 10.0832 19.1889V13.5683H8.31592C8.26603 13.5683 8.21819 13.5485 8.18291 13.5132C8.14763 13.478 8.12781 13.4301 8.12781 13.3802V11.1167C8.12781 11.0668 8.14763 11.0189 8.18291 10.9836C8.21819 10.9484 8.26603 10.9286 8.31592 10.9286H10.0832V9.44717C10.0832 7.48516 11.2706 6.26657 13.1824 6.26657C14.0042 6.26657 14.7305 6.32771 14.9536 6.35724C14.9989 6.36322 15.0404 6.38542 15.0704 6.41971C15.1005 6.454 15.1171 6.49805 15.1171 6.54366V8.5685Z" fill="#B4B3B3"/>
</g>
<defs>
<clipPath id="clip0_15_2471">
<rect width="24.0783" height="24.0783" fill="white" transform="translate(0.0998535 0.414276)"/>
</clipPath>
</defs>
</svg>
