<svg width="26" height="21" viewBox="0 0 26 21" fill="none" xmlns="http://www.w3.org/2000/svg">
<g clip-path="url(#clip0_15_2447)">
<path d="M21.608 2.20833C20.0093 1.45082 18.2951 0.892708 16.5027 0.573057C16.4701 0.566888 16.4375 0.582305 16.4207 0.613141C16.2001 1.0181 15.956 1.5464 15.785 1.96164C13.8571 1.66358 11.9392 1.66358 10.0509 1.96164C9.87988 1.53717 9.6268 1.0181 9.40534 0.613141C9.38853 0.583334 9.35592 0.567917 9.32327 0.573057C7.53189 0.891687 5.81761 1.44979 4.21801 2.20833C4.20416 2.2145 4.19229 2.22478 4.18442 2.23814C0.932795 7.25497 0.0420417 12.1485 0.479016 16.9813C0.480993 17.005 0.493845 17.0276 0.51164 17.042C2.65697 18.669 4.73508 19.6568 6.7746 20.3114C6.80724 20.3218 6.84182 20.3094 6.8626 20.2816C7.34505 19.6012 7.77511 18.8839 8.14384 18.1294C8.1656 18.0852 8.14483 18.0328 8.10036 18.0153C7.41821 17.7481 6.76866 17.4222 6.14385 17.0522C6.09443 17.0224 6.09047 16.9494 6.13594 16.9145C6.26742 16.8128 6.39894 16.7069 6.52449 16.6C6.5472 16.5805 6.57886 16.5764 6.60556 16.5886C10.7103 18.5241 15.1542 18.5241 19.2105 16.5886C19.2372 16.5753 19.2689 16.5794 19.2926 16.599C19.4182 16.7058 19.5496 16.8128 19.6822 16.9145C19.7276 16.9494 19.7246 17.0224 19.6753 17.0522C19.0504 17.4295 18.4009 17.7481 17.7178 18.0143C17.6732 18.0317 17.6535 18.0852 17.6752 18.1294C18.0519 18.8828 18.482 19.6002 18.9555 20.2806C18.9753 20.3094 19.0109 20.3218 19.0435 20.3114C21.0929 19.6568 23.171 18.669 25.3163 17.042C25.3352 17.0276 25.347 17.006 25.349 16.9823C25.8719 11.395 24.4731 6.54167 21.6406 2.23916C21.6337 2.22478 21.6219 2.2145 21.608 2.20833ZM8.75682 14.0386C7.521 14.0386 6.50273 12.8669 6.50273 11.4279C6.50273 9.98899 7.50126 8.81729 8.75682 8.81729C10.0222 8.81729 11.0306 9.99927 11.0109 11.4279C11.0109 12.8669 10.0123 14.0386 8.75682 14.0386ZM17.0909 14.0386C15.8551 14.0386 14.8369 12.8669 14.8369 11.4279C14.8369 9.98899 15.8354 8.81729 17.0909 8.81729C18.3564 8.81729 19.3647 9.99927 19.3451 11.4279C19.3451 12.8669 18.3564 14.0386 17.0909 14.0386Z" fill="#B4B3B3"/>
</g>
<defs>
<clipPath id="clip0_15_2447">
<rect width="25.0816" height="20.0653" fill="white" transform="translate(0.375305 0.420807)"/>
</clipPath>
</defs>
</svg>
