<svg width="21" height="21" viewBox="0 0 21 21" fill="none" xmlns="http://www.w3.org/2000/svg">
<g clip-path="url(#clip0_15_2454)">
<path d="M20.731 4.23067C19.9928 4.55841 19.1994 4.77913 18.3667 4.87862C19.2169 4.36946 19.8699 3.56267 20.1767 2.60121C19.3817 3.07274 18.5005 3.41552 17.5624 3.60029C16.8125 2.80019 15.7415 2.30023 14.5577 2.30023C11.8998 2.30023 9.94679 4.77996 10.5471 7.35417C7.12679 7.18278 4.09359 5.54411 2.06282 3.05351C0.984308 4.9037 1.5035 7.32407 3.33613 8.54972C2.66227 8.52799 2.02687 8.34322 1.47256 8.03472C1.42742 9.94175 2.79437 11.7258 4.77414 12.123C4.19475 12.2801 3.56019 12.317 2.91476 12.1933C3.43812 13.8286 4.95806 15.0183 6.7606 15.0517C5.02997 16.4086 2.84955 17.0147 0.665771 16.7572C2.48753 17.9252 4.65207 18.6066 6.9763 18.6066C14.6195 18.6066 18.9377 12.1514 18.6769 6.36177C19.4812 5.78071 20.1793 5.05586 20.731 4.23067Z" fill="#B4B3B3"/>
</g>
<defs>
<clipPath id="clip0_15_2454">
<rect width="20.0653" height="20.0653" fill="white" transform="translate(0.665771 0.420807)"/>
</clipPath>
</defs>
</svg>
