<svg width="11" height="11" viewBox="0 0 11 11" fill="none" xmlns="http://www.w3.org/2000/svg">
<g clip-path="url(#clip0_15_2435)">
<path d="M7.86611 4.53014L3.82325 0.494426C3.75685 0.427478 3.67785 0.374339 3.59081 0.338076C3.50377 0.301812 3.4104 0.283142 3.31611 0.283142C3.22182 0.283142 3.12845 0.301812 3.04141 0.338076C2.95437 0.374339 2.87537 0.427478 2.80897 0.494426C2.67593 0.628257 2.60126 0.809292 2.60126 0.997999C2.60126 1.1867 2.67593 1.36774 2.80897 1.50157L6.34468 5.073L2.80897 8.60868C2.67593 8.74254 2.60126 8.92361 2.60126 9.11225C2.60126 9.30096 2.67593 9.48204 2.80897 9.61582C2.87512 9.68332 2.95401 9.73703 3.04106 9.77382C3.12812 9.81061 3.2216 9.82975 3.31611 9.83011C3.41062 9.82975 3.5041 9.81061 3.59116 9.77382C3.67821 9.73703 3.7571 9.68332 3.82325 9.61582L7.86611 5.58014C7.93862 5.51326 7.99648 5.43207 8.03605 5.34172C8.07563 5.25136 8.09606 5.15379 8.09606 5.05514C8.09606 4.9565 8.07563 4.85892 8.03605 4.76856C7.99648 4.67821 7.93862 4.59703 7.86611 4.53014Z" fill="white"/>
</g>
<defs>
<clipPath id="clip0_15_2435">
<rect width="10" height="10" fill="white" transform="translate(0.337524 0.0375977)"/>
</clipPath>
</defs>
</svg>
