<svg width="25" height="25" viewBox="0 0 25 25" fill="none" xmlns="http://www.w3.org/2000/svg">
<g clip-path="url(#clip0_15_2451)">
<path d="M8.54713 2.82208C5.44986 2.82208 2.93042 5.34386 2.93042 8.44193V16.4681C2.93042 19.5654 5.45218 22.0848 8.55026 22.0848H16.5764C19.6737 22.0848 22.1931 19.563 22.1931 16.4649V8.43879C22.1931 5.34152 19.6713 2.82208 16.5732 2.82208H8.54713ZM18.18 6.03253C18.6231 6.03253 18.9826 6.3921 18.9826 6.83514C18.9826 7.27818 18.6231 7.63775 18.18 7.63775C17.737 7.63775 17.3774 7.27818 17.3774 6.83514C17.3774 6.3921 17.737 6.03253 18.18 6.03253ZM12.5618 7.63775C15.2176 7.63775 17.3774 9.79757 17.3774 12.4534C17.3774 15.1093 15.2176 17.2691 12.5618 17.2691C9.90591 17.2691 7.74609 15.1093 7.74609 12.4534C7.74609 9.79757 9.90591 7.63775 12.5618 7.63775ZM12.5618 9.24297C11.7103 9.24297 10.8937 9.58122 10.2916 10.1833C9.68955 10.7854 9.35131 11.602 9.35131 12.4534C9.35131 13.3049 9.68955 14.1214 10.2916 14.7235C10.8937 15.3257 11.7103 15.6639 12.5618 15.6639C13.4132 15.6639 14.2298 15.3257 14.8318 14.7235C15.4339 14.1214 15.7722 13.3049 15.7722 12.4534C15.7722 11.602 15.4339 10.7854 14.8318 10.1833C14.2298 9.58122 13.4132 9.24297 12.5618 9.24297Z" fill="#B4B3B3"/>
</g>
<defs>
<clipPath id="clip0_15_2451">
<rect width="24.0783" height="24.0783" fill="white" transform="translate(0.522156 0.414276)"/>
</clipPath>
</defs>
</svg>
