<svg width="24" height="20" viewBox="0 0 24 20" fill="none" xmlns="http://www.w3.org/2000/svg">
<g clip-path="url(#clip0_15_2458)">
<path d="M9.1445 18.412C8.48317 18.412 8.5956 18.1623 8.3675 17.5326L6.42297 11.1331L21.3914 2.25293" fill="black"/>
<path d="M9.14471 18.4129C9.65507 18.4129 9.88047 18.1795 10.1654 17.9026L12.8873 15.2558L9.49209 13.2085" fill="#B4B3B3"/>
<path d="M9.49183 13.2084L17.7177 19.2858C18.6564 19.8037 19.3337 19.5355 19.5676 18.4143L22.9159 2.6358C23.2587 1.26143 22.3921 0.637858 21.494 1.04558L1.83261 8.6269C0.490551 9.16525 0.498546 9.91401 1.58801 10.2476L6.63354 11.8225L18.3145 4.4531C18.866 4.11869 19.3722 4.29832 18.9568 4.66708" fill="#B4B3B3"/>
</g>
<defs>
<clipPath id="clip0_15_2458">
<rect width="23.0751" height="19.062" fill="white" transform="translate(0.796326 0.922424)"/>
</clipPath>
</defs>
</svg>
