<svg width="22" height="21" viewBox="0 0 22 21" fill="none" xmlns="http://www.w3.org/2000/svg">
<g clip-path="url(#clip0_15_2474)">
<path d="M17.3416 17.5176H14.3683V12.8613C14.3683 11.7509 14.3485 10.3215 12.8218 10.3215C11.2732 10.3215 11.0362 11.5312 11.0362 12.7804V17.5172H8.06299V7.94188H10.9173V9.25044H10.9574C11.5386 8.25675 12.6232 7.66104 13.7736 7.70376C16.7872 7.70376 17.3429 9.68595 17.3429 12.2647L17.3416 17.5176ZM4.70807 6.63297C3.7615 6.63297 2.98223 5.85415 2.98223 4.90758C2.98223 3.96101 3.76114 3.18211 4.70771 3.18211C5.65419 3.18211 6.433 3.96083 6.43318 4.90722C6.43318 5.85362 5.65446 6.63287 4.70807 6.63297ZM6.19471 17.5176H3.2183V7.94188H6.19471V17.5176ZM18.8239 0.420934H1.72412C0.921428 0.411869 0.253192 1.06458 0.243408 1.86726V19.038C0.252833 19.8412 0.920979 20.4946 1.72412 20.486H18.8239C19.629 20.4961 20.2995 19.8428 20.3103 19.038V1.8661C20.2995 1.0617 19.6281 0.410343 18.8239 0.420934Z" fill="#B4B3B3"/>
</g>
<defs>
<clipPath id="clip0_15_2474">
<rect width="21.0685" height="20.0653" fill="white" transform="translate(0.243408 0.420807)"/>
</clipPath>
</defs>
</svg>
