<svg width="14" height="14" viewBox="0 0 14 14" fill="none" xmlns="http://www.w3.org/2000/svg">
<g clip-path="url(#clip0_15_1880)">
<path d="M8.21724 1.04419C7.99853 0.820381 7.7373 0.642541 7.4489 0.521123C7.16049 0.399705 6.85072 0.337158 6.5378 0.337158C6.22487 0.337158 5.91511 0.399705 5.6267 0.521123C5.33829 0.642541 5.07706 0.820381 4.85836 1.04419L4.35299 1.56257L3.62986 1.55363C3.31684 1.54992 3.00625 1.60885 2.71634 1.72693C2.42642 1.84501 2.16305 2.01986 1.9417 2.24121C1.72035 2.46257 1.54549 2.72594 1.42741 3.01585C1.30933 3.30577 1.25041 3.61636 1.25411 3.92938L1.26224 4.6525L0.745486 5.15788C0.521675 5.37658 0.343835 5.63781 0.222417 5.92622C0.100999 6.21463 0.0384521 6.52439 0.0384521 6.83732C0.0384521 7.15024 0.100999 7.46001 0.222417 7.74842C0.343835 8.03682 0.521675 8.29805 0.745486 8.51676L1.26305 9.02213L1.25411 9.74525C1.25041 10.0583 1.30933 10.3689 1.42741 10.6588C1.54549 10.9487 1.72035 11.2121 1.9417 11.4334C2.16305 11.6548 2.42642 11.8296 2.71634 11.9477C3.00625 12.0658 3.31684 12.1247 3.62986 12.121L4.35299 12.1129L4.85836 12.6296C5.07706 12.8534 5.33829 13.0313 5.6267 13.1527C5.91511 13.2741 6.22487 13.3367 6.5378 13.3367C6.85072 13.3367 7.16049 13.2741 7.4489 13.1527C7.7373 13.0313 7.99853 12.8534 8.21724 12.6296L8.72261 12.1121L9.44573 12.121C9.75875 12.1247 10.0693 12.0658 10.3593 11.9477C10.6492 11.8296 10.9125 11.6548 11.1339 11.4334C11.3553 11.2121 11.5301 10.9487 11.6482 10.6588C11.7663 10.3689 11.8252 10.0583 11.8215 9.74525L11.8134 9.02213L12.3301 8.51676C12.5539 8.29805 12.7318 8.03682 12.8532 7.74842C12.9746 7.46001 13.0371 7.15024 13.0371 6.83732C13.0371 6.52439 12.9746 6.21463 12.8532 5.92622C12.7318 5.63781 12.5539 5.37658 12.3301 5.15788L11.8125 4.6525L11.8215 3.92938C11.8252 3.61636 11.7663 3.30577 11.6482 3.01585C11.5301 2.72594 11.3553 2.46257 11.1339 2.24121C10.9125 2.01986 10.6492 1.84501 10.3593 1.72693C10.0693 1.60885 9.75875 1.54992 9.44573 1.55363L8.72261 1.56175L8.21724 1.045V1.04419ZM8.45042 5.90619L6.01292 8.34369C5.97519 8.38153 5.93036 8.41154 5.881 8.43202C5.83164 8.4525 5.77873 8.46304 5.7253 8.46304C5.67186 8.46304 5.61895 8.4525 5.5696 8.43202C5.52024 8.41154 5.47541 8.38153 5.43767 8.34369L4.21892 7.12494C4.18115 7.08717 4.15119 7.04233 4.13075 6.99298C4.11031 6.94363 4.09978 6.89073 4.09978 6.83732C4.09978 6.7839 4.11031 6.73101 4.13075 6.68166C4.15119 6.6323 4.18115 6.58746 4.21892 6.54969C4.25669 6.51192 4.30154 6.48196 4.35089 6.46152C4.40024 6.44107 4.45313 6.43055 4.50655 6.43055C4.55996 6.43055 4.61286 6.44107 4.66221 6.46152C4.71156 6.48196 4.7564 6.51192 4.79417 6.54969L5.7253 7.48163L7.87517 5.33094C7.95146 5.25466 8.05492 5.2118 8.1628 5.2118C8.27068 5.2118 8.37414 5.25466 8.45042 5.33094C8.52671 5.40722 8.56956 5.51069 8.56956 5.61857C8.56956 5.72645 8.52671 5.82991 8.45042 5.90619Z" fill="#0D6EFD"/>
</g>
<defs>
<clipPath id="clip0_15_1880">
<rect width="13" height="13" fill="white" transform="translate(0.0375977 0.337402)"/>
</clipPath>
</defs>
</svg>
