<svg width="21" height="16" viewBox="0 0 21 16" fill="none" xmlns="http://www.w3.org/2000/svg">
<g clip-path="url(#clip0_15_2477)">
<path d="M19.9996 3.12948C19.8846 2.70415 19.66 2.31638 19.3485 2.0048C19.0369 1.69323 18.6491 1.46871 18.2238 1.35362C16.6667 0.928955 10.3997 0.928955 10.3997 0.928955C10.3997 0.928955 4.13267 0.941824 2.57557 1.36649C2.15023 1.48158 1.76247 1.7061 1.45089 2.01768C1.13932 2.32925 0.914802 2.71701 0.799707 3.14236C0.328716 5.90911 0.145982 10.1249 0.812575 12.7809C0.92767 13.2063 1.15219 13.5941 1.46376 13.9056C1.77534 14.2172 2.16311 14.4417 2.58844 14.5568C4.14555 14.9815 10.4125 14.9815 10.4125 14.9815C10.4125 14.9815 16.6795 14.9815 18.2367 14.5568C18.662 14.4417 19.0497 14.2172 19.3614 13.9056C19.673 13.5941 19.8974 13.2063 20.0126 12.7809C20.5093 10.0103 20.6624 5.79715 19.9996 3.12948Z" fill="#B4B3B3"/>
<path d="M8.40527 10.9672L13.6049 7.95554L8.40527 4.94391V10.9672Z" fill="black"/>
</g>
<defs>
<clipPath id="clip0_15_2477">
<rect width="20.0653" height="15.049" fill="white" transform="translate(0.377197 0.928955)"/>
</clipPath>
</defs>
</svg>
