<svg width="25" height="25" viewBox="0 0 25 25" fill="none" xmlns="http://www.w3.org/2000/svg">
<g clip-path="url(#clip0_16_2708)">
<path d="M3.76562 9.53125H7.76562V5.53125H3.76562V9.53125ZM3.76562 14.5312H7.76562V10.5312H3.76562V14.5312ZM8.76562 14.5312H12.7656V10.5312H8.76562V14.5312ZM13.7656 14.5312H17.7656V10.5312H13.7656V14.5312ZM8.76562 9.53125H12.7656V5.53125H8.76562V9.53125ZM13.7656 5.53125V9.53125H17.7656V5.53125H13.7656ZM18.7656 14.5312H22.7656V10.5312H18.7656V14.5312ZM3.76562 19.5312H7.76562V15.5312H3.76562V19.5312ZM8.76562 19.5312H12.7656V15.5312H8.76562V19.5312ZM13.7656 19.5312H17.7656V15.5312H13.7656V19.5312ZM18.7656 19.5312H22.7656V15.5312H18.7656V19.5312ZM18.7656 5.53125V9.53125H22.7656V5.53125H18.7656Z" fill="black"/>
</g>
<defs>
<clipPath id="clip0_16_2708">
<rect width="24" height="24" fill="white" transform="translate(0.765625 0.53125)"/>
</clipPath>
</defs>
</svg>
