<svg width="19" height="13" viewBox="0 0 19 13" fill="none" xmlns="http://www.w3.org/2000/svg">
<g clip-path="url(#clip0_16_2712)">
<path d="M8.26621 3.18164H18.0155C18.2145 3.18164 18.4053 3.10262 18.5459 2.96197C18.6866 2.82131 18.7656 2.63055 18.7656 2.43164C18.7656 2.23272 18.6866 2.04196 18.5459 1.90131C18.4053 1.76065 18.2145 1.68164 18.0155 1.68164H8.26621C8.06727 1.68164 7.87648 1.76065 7.73581 1.90131C7.59513 2.04196 7.51611 2.23272 7.51611 2.43164C7.51611 2.63055 7.59513 2.82131 7.73581 2.96197C7.87648 3.10262 8.06727 3.18164 8.26621 3.18164Z" fill="#11110F"/>
<path d="M18.0155 5.86621H8.26621C8.1677 5.86621 8.07016 5.88561 7.97916 5.9233C7.88815 5.96099 7.80546 6.01623 7.73581 6.08588C7.66615 6.15552 7.6109 6.2382 7.5732 6.32919C7.53551 6.42019 7.51611 6.51771 7.51611 6.61621C7.51611 6.7147 7.53551 6.81222 7.5732 6.90322C7.6109 6.99421 7.66615 7.07689 7.73581 7.14654C7.80546 7.21618 7.88815 7.27142 7.97916 7.30912C8.07016 7.34681 8.1677 7.36621 8.26621 7.36621H18.0155C18.2145 7.36621 18.4053 7.28719 18.5459 7.14654C18.6866 7.00588 18.7656 6.81512 18.7656 6.61621C18.7656 6.41729 18.6866 6.22653 18.5459 6.08588C18.4053 5.94522 18.2145 5.86621 18.0155 5.86621Z" fill="#11110F"/>
<path d="M18.0155 10.0508H8.26621C8.06727 10.0508 7.87648 10.1298 7.73581 10.2705C7.59513 10.4111 7.51611 10.6019 7.51611 10.8008C7.51611 10.9997 7.59513 11.1905 7.73581 11.3311C7.87648 11.4718 8.06727 11.5508 8.26621 11.5508H18.0155C18.2145 11.5508 18.4053 11.4718 18.5459 11.3311C18.6866 11.1905 18.7656 10.9997 18.7656 10.8008C18.7656 10.6019 18.6866 10.4111 18.5459 10.2705C18.4053 10.1298 18.2145 10.0508 18.0155 10.0508Z" fill="#11110F"/>
<path d="M5.33192 2.8776C5.40614 2.87768 5.47871 2.86019 5.54043 2.82734C5.60215 2.79449 5.65025 2.74776 5.6786 2.69309C5.70695 2.63842 5.71429 2.57827 5.69969 2.52027C5.68508 2.46226 5.64918 2.40903 5.59656 2.36732L3.76655 0.909362C3.62589 0.797316 3.43518 0.734375 3.23632 0.734375C3.03747 0.734375 2.84674 0.797316 2.70609 0.909362L0.877053 2.36732C0.824428 2.40903 0.788534 2.46226 0.773927 2.52027C0.75932 2.57827 0.766658 2.63842 0.79501 2.69309C0.823362 2.74776 0.871449 2.79449 0.933171 2.82734C0.994892 2.86019 1.06746 2.87768 1.14168 2.8776H2.4872V10.0511H1.14168C1.06738 10.0508 0.994674 10.0682 0.932803 10.101C0.870932 10.1338 0.822693 10.1805 0.79422 10.2352C0.765748 10.2899 0.758328 10.3501 0.772904 10.4082C0.787481 10.4663 0.823395 10.5196 0.876081 10.5614L2.70609 12.0193C2.84674 12.1314 3.03747 12.1943 3.23632 12.1943C3.43518 12.1943 3.62589 12.1314 3.76655 12.0193L5.59656 10.5614C5.64918 10.5196 5.68508 10.4664 5.69969 10.4084C5.71429 10.3504 5.70695 10.2903 5.6786 10.2356C5.65025 10.1809 5.60215 10.1342 5.54043 10.1013C5.47871 10.0685 5.40614 10.051 5.33192 10.0511H3.9874V2.8776H5.33192Z" fill="#11110F"/>
</g>
<defs>
<clipPath id="clip0_16_2712">
<rect width="18" height="12" fill="white" transform="translate(0.765625 0.734375)"/>
</clipPath>
</defs>
</svg>
