<svg width="16" height="17" viewBox="0 0 16 17" fill="none" xmlns="http://www.w3.org/2000/svg">
<g clip-path="url(#clip0_16_2721)">
<path d="M12.9665 7.89402C12.8117 7.74017 12.6023 7.65381 12.3841 7.65381C12.1659 7.65381 11.9565 7.74017 11.8017 7.89402L8.83622 10.8183L5.912 7.89402C5.75723 7.74017 5.54787 7.65381 5.32964 7.65381C5.11141 7.65381 4.90204 7.74017 4.74727 7.89402C4.66985 7.97081 4.60839 8.06218 4.56646 8.16284C4.52452 8.2635 4.50293 8.37147 4.50293 8.48052C4.50293 8.58957 4.52452 8.69754 4.56646 8.7982C4.60839 8.89886 4.66985 8.99022 4.74727 9.06701L8.24973 12.5695C8.32652 12.6469 8.41788 12.7084 8.51854 12.7503C8.6192 12.7922 8.72717 12.8138 8.83622 12.8138C8.94527 12.8138 9.05324 12.7922 9.1539 12.7503C9.25456 12.7084 9.34593 12.6469 9.42272 12.5695L12.9665 9.06701C13.0439 8.99022 13.1053 8.89886 13.1473 8.7982C13.1892 8.69754 13.2108 8.58957 13.2108 8.48052C13.2108 8.37147 13.1892 8.2635 13.1473 8.16284C13.1053 8.06218 13.0439 7.97081 12.9665 7.89402Z" fill="#11110F"/>
</g>
<defs>
<clipPath id="clip0_16_2721">
<rect width="16" height="16" fill="white" transform="translate(0 0.734375)"/>
</clipPath>
</defs>
</svg>
