<svg width="20" height="21" viewBox="0 0 20 21" fill="none" xmlns="http://www.w3.org/2000/svg">
<g clip-path="url(#clip0_16_2725)">
<path d="M15.8334 2.13538H4.16675C3.50371 2.13538 2.86781 2.39878 2.39898 2.86761C1.93015 3.33644 1.66675 3.97234 1.66675 4.63538V5.61038C1.66663 5.95449 1.73755 6.29493 1.87508 6.61038V6.66038C1.99281 6.92786 2.15958 7.17093 2.36675 7.37704L7.50008 12.477V17.9687C7.4998 18.1104 7.53561 18.2497 7.60415 18.3735C7.67266 18.4975 7.77165 18.602 7.89175 18.677C8.02436 18.7592 8.1774 18.8025 8.33341 18.802C8.46386 18.8012 8.59231 18.7699 8.70841 18.7104L12.0417 17.0437C12.1792 16.9745 12.2947 16.8685 12.3756 16.7376C12.4565 16.6067 12.4996 16.4559 12.5001 16.302V12.477L17.6001 7.37704C17.8072 7.17093 17.9741 6.92786 18.0917 6.66038V6.61038C18.2407 6.29741 18.3231 5.95686 18.3334 5.61038V4.63538C18.3334 3.97234 18.0701 3.33644 17.6012 2.86761C17.1324 2.39878 16.4964 2.13538 15.8334 2.13538ZM11.0751 11.5437C10.9978 11.6216 10.9367 11.7139 10.8953 11.8155C10.8538 11.917 10.8328 12.0257 10.8334 12.1354V15.7854L9.16675 16.6187V12.1354C9.16738 12.0257 9.14636 11.917 9.1049 11.8155C9.06341 11.7139 9.00231 11.6216 8.92508 11.5437L4.50841 7.13538H15.4917L11.0751 11.5437ZM16.6667 5.46871H3.33341V4.63538C3.33341 4.41436 3.42121 4.20239 3.5775 4.04613C3.73378 3.88984 3.94573 3.80204 4.16675 3.80204H15.8334C16.0544 3.80204 16.2664 3.88984 16.4227 4.04613C16.5789 4.20239 16.6667 4.41436 16.6667 4.63538V5.46871Z" fill="#11110F"/>
</g>
<defs>
<clipPath id="clip0_16_2725">
<rect width="20" height="20" fill="white" transform="translate(0 0.46875)"/>
</clipPath>
</defs>
</svg>
