<svg width="11" height="11" viewBox="0 0 11 11" fill="none" xmlns="http://www.w3.org/2000/svg">
<g clip-path="url(#clip0_15_1287)">
<path d="M7.86611 4.5302L3.82325 0.494487C3.75685 0.427539 3.67785 0.3744 3.59081 0.338137C3.50377 0.301873 3.4104 0.283203 3.31611 0.283203C3.22182 0.283203 3.12845 0.301873 3.04141 0.338137C2.95437 0.3744 2.87537 0.427539 2.80897 0.494487C2.67593 0.628318 2.60126 0.809353 2.60126 0.99806C2.60126 1.18676 2.67593 1.3678 2.80897 1.50163L6.34468 5.07306L2.80897 8.60874C2.67593 8.7426 2.60126 8.92367 2.60126 9.11231C2.60126 9.30102 2.67593 9.4821 2.80897 9.61588C2.87512 9.68338 2.95401 9.7371 3.04106 9.77388C3.12812 9.81067 3.2216 9.82981 3.31611 9.83017C3.41062 9.82981 3.5041 9.81067 3.59116 9.77388C3.67821 9.7371 3.7571 9.68338 3.82325 9.61588L7.86611 5.5802C7.93862 5.51332 7.99648 5.43213 8.03605 5.34178C8.07563 5.25142 8.09606 5.15385 8.09606 5.0552C8.09606 4.95656 8.07563 4.85898 8.03605 4.76862C7.99648 4.67827 7.93862 4.59709 7.86611 4.5302Z" fill="#B530A6"/>
</g>
<defs>
<clipPath id="clip0_15_1287">
<rect width="10" height="10" fill="white" transform="translate(0.337524 0.0375977)"/>
</clipPath>
</defs>
</svg>
