<svg width="14" height="14" viewBox="0 0 14 14" fill="none" xmlns="http://www.w3.org/2000/svg">
<g clip-path="url(#clip0_15_1852)">
<path d="M9.12959 1.04419C8.91089 0.820381 8.64966 0.642541 8.36125 0.521123C8.07284 0.399705 7.76307 0.337158 7.45015 0.337158C7.13723 0.337158 6.82746 0.399705 6.53905 0.521123C6.25064 0.642541 5.98941 0.820381 5.77071 1.04419L5.26534 1.56257L4.54221 1.55363C4.2292 1.54992 3.9186 1.60885 3.62869 1.72693C3.33878 1.84501 3.0754 2.01986 2.85405 2.24121C2.6327 2.46257 2.45784 2.72594 2.33976 3.01585C2.22168 3.30577 2.16276 3.61636 2.16646 3.92938L2.17459 4.6525L1.65784 5.15788C1.43403 5.37658 1.25619 5.63781 1.13477 5.92622C1.01335 6.21463 0.950806 6.52439 0.950806 6.83732C0.950806 7.15024 1.01335 7.46001 1.13477 7.74842C1.25619 8.03682 1.43403 8.29805 1.65784 8.51676L2.1754 9.02213L2.16646 9.74525C2.16276 10.0583 2.22168 10.3689 2.33976 10.6588C2.45784 10.9487 2.6327 11.2121 2.85405 11.4334C3.0754 11.6548 3.33878 11.8296 3.62869 11.9477C3.9186 12.0658 4.2292 12.1247 4.54221 12.121L5.26534 12.1129L5.77071 12.6296C5.98941 12.8534 6.25064 13.0313 6.53905 13.1527C6.82746 13.2741 7.13723 13.3367 7.45015 13.3367C7.76307 13.3367 8.07284 13.2741 8.36125 13.1527C8.64966 13.0313 8.91089 12.8534 9.12959 12.6296L9.63496 12.1121L10.3581 12.121C10.6711 12.1247 10.9817 12.0658 11.2716 11.9477C11.5615 11.8296 11.8249 11.6548 12.0463 11.4334C12.2676 11.2121 12.4425 10.9487 12.5605 10.6588C12.6786 10.3689 12.7375 10.0583 12.7338 9.74525L12.7257 9.02213L13.2425 8.51676C13.4663 8.29805 13.6441 8.03682 13.7655 7.74842C13.8869 7.46001 13.9495 7.15024 13.9495 6.83732C13.9495 6.52439 13.8869 6.21463 13.7655 5.92622C13.6441 5.63781 13.4663 5.37658 13.2425 5.15788L12.7249 4.6525L12.7338 3.92938C12.7375 3.61636 12.6786 3.30577 12.5605 3.01585C12.4425 2.72594 12.2676 2.46257 12.0463 2.24121C11.8249 2.01986 11.5615 1.84501 11.2716 1.72693C10.9817 1.60885 10.6711 1.54992 10.3581 1.55363L9.63496 1.56175L9.12959 1.045V1.04419ZM9.36278 5.90619L6.92528 8.34369C6.88754 8.38153 6.84271 8.41154 6.79335 8.43202C6.744 8.4525 6.69109 8.46304 6.63765 8.46304C6.58422 8.46304 6.5313 8.4525 6.48195 8.43202C6.43259 8.41154 6.38776 8.38153 6.35003 8.34369L5.13128 7.12494C5.0935 7.08717 5.06354 7.04233 5.0431 6.99298C5.02266 6.94363 5.01214 6.89073 5.01214 6.83732C5.01214 6.7839 5.02266 6.73101 5.0431 6.68166C5.06354 6.6323 5.0935 6.58746 5.13128 6.54969C5.16905 6.51192 5.21389 6.48196 5.26324 6.46152C5.31259 6.44107 5.36548 6.43055 5.4189 6.43055C5.47232 6.43055 5.52521 6.44107 5.57456 6.46152C5.62391 6.48196 5.66876 6.51192 5.70653 6.54969L6.63765 7.48163L8.78753 5.33094C8.86381 5.25466 8.96727 5.2118 9.07515 5.2118C9.18303 5.2118 9.28649 5.25466 9.36278 5.33094C9.43906 5.40722 9.48191 5.51069 9.48191 5.61857C9.48191 5.72645 9.43906 5.82991 9.36278 5.90619Z" fill="#0D6EFD"/>
</g>
<defs>
<clipPath id="clip0_15_1852">
<rect width="13" height="13" fill="white" transform="translate(0.949951 0.337402)"/>
</clipPath>
</defs>
</svg>
