<svg width="13" height="14" viewBox="0 0 13 14" fill="none" xmlns="http://www.w3.org/2000/svg">
<g clip-path="url(#clip0_15_1867)">
<path d="M8.17964 0.869143C7.96094 0.645332 7.69971 0.467492 7.4113 0.346074C7.12289 0.224656 6.81312 0.162109 6.5002 0.162109C6.18728 0.162109 5.87751 0.224656 5.5891 0.346074C5.30069 0.467492 5.03946 0.645332 4.82076 0.869143L4.31539 1.38752L3.59226 1.37858C3.27925 1.37488 2.96865 1.4338 2.67874 1.55188C2.38883 1.66996 2.12545 1.84482 1.9041 2.06617C1.68275 2.28752 1.50789 2.55089 1.38981 2.84081C1.27173 3.13072 1.21281 3.44132 1.21651 3.75433L1.22464 4.47746L0.707888 4.98283C0.484077 5.20153 0.306237 5.46276 0.184819 5.75117C0.0634013 6.03958 0.000854492 6.34934 0.000854492 6.66227C0.000854492 6.97519 0.0634013 7.28496 0.184819 7.57337C0.306237 7.86178 0.484077 8.12301 0.707888 8.34171L1.22545 8.84708L1.21651 9.57021C1.21281 9.88322 1.27173 10.1938 1.38981 10.4837C1.50789 10.7736 1.68275 11.037 1.9041 11.2584C2.12545 11.4797 2.38883 11.6546 2.67874 11.7727C2.96865 11.8907 3.27925 11.9497 3.59226 11.946L4.31539 11.9378L4.82076 12.4546C5.03946 12.6784 5.30069 12.8562 5.5891 12.9776C5.87751 13.0991 6.18728 13.1616 6.5002 13.1616C6.81312 13.1616 7.12289 13.0991 7.4113 12.9776C7.69971 12.8562 7.96094 12.6784 8.17964 12.4546L8.68501 11.937L9.40814 11.946C9.72115 11.9497 10.0317 11.8907 10.3217 11.7727C10.6116 11.6546 10.875 11.4797 11.0963 11.2584C11.3177 11.037 11.4925 10.7736 11.6106 10.4837C11.7287 10.1938 11.7876 9.88322 11.7839 9.57021L11.7758 8.84708L12.2925 8.34171C12.5163 8.12301 12.6942 7.86178 12.8156 7.57337C12.937 7.28496 12.9995 6.97519 12.9995 6.66227C12.9995 6.34934 12.937 6.03958 12.8156 5.75117C12.6942 5.46276 12.5163 5.20153 12.2925 4.98283L11.7749 4.47746L11.7839 3.75433C11.7876 3.44132 11.7287 3.13072 11.6106 2.84081C11.4925 2.55089 11.3177 2.28752 11.0963 2.06617C10.875 1.84482 10.6116 1.66996 10.3217 1.55188C10.0317 1.4338 9.72115 1.37488 9.40814 1.37858L8.68501 1.38671L8.17964 0.869956V0.869143ZM8.41282 5.73114L5.97533 8.16864C5.93759 8.20648 5.89276 8.23649 5.8434 8.25697C5.79405 8.27745 5.74114 8.28799 5.6877 8.28799C5.63426 8.28799 5.58135 8.27745 5.532 8.25697C5.48264 8.23649 5.43781 8.20648 5.40007 8.16864L4.18132 6.94989C4.14355 6.91212 4.11359 6.86728 4.09315 6.81793C4.07271 6.76858 4.06219 6.71568 4.06219 6.66227C4.06219 6.60885 4.07271 6.55596 4.09315 6.50661C4.11359 6.45726 4.14355 6.41241 4.18132 6.37464C4.2191 6.33687 4.26394 6.30691 4.31329 6.28647C4.36264 6.26603 4.41553 6.25551 4.46895 6.25551C4.52237 6.25551 4.57526 6.26603 4.62461 6.28647C4.67396 6.30691 4.7188 6.33687 4.75658 6.37464L5.6877 7.30658L7.83757 5.15589C7.91386 5.07961 8.01732 5.03676 8.1252 5.03676C8.23308 5.03676 8.33654 5.07961 8.41282 5.15589C8.48911 5.23218 8.53196 5.33564 8.53196 5.44352C8.53196 5.5514 8.48911 5.65486 8.41282 5.73114Z" fill="#0D6EFD"/>
</g>
<defs>
<clipPath id="clip0_15_1867">
<rect width="13" height="13" fill="white" transform="translate(0 0.162354)"/>
</clipPath>
</defs>
</svg>
